<svg width="331" height="49" viewBox="0 0 331 49" fill="none" xmlns="http://www.w3.org/2000/svg">
<path d="M14.6874 39.672C11.9354 39.672 9.27938 39.336 6.71938 38.664C4.19138 37.96 2.12738 37.064 0.527379 35.976L3.64738 28.968C5.15138 29.928 6.87938 30.728 8.83138 31.368C10.8154 31.976 12.7834 32.28 14.7354 32.28C16.0474 32.28 17.1034 32.168 17.9034 31.944C18.7034 31.688 19.2794 31.368 19.6314 30.984C20.0154 30.568 20.2074 30.088 20.2074 29.544C20.2074 28.776 19.8554 28.168 19.1514 27.72C18.4474 27.272 17.5354 26.904 16.4154 26.616C15.2954 26.328 14.0474 26.04 12.6714 25.752C11.3274 25.464 9.96738 25.096 8.59138 24.648C7.24738 24.2 6.01538 23.624 4.89538 22.92C3.77538 22.184 2.86338 21.24 2.15938 20.088C1.45538 18.904 1.10338 17.416 1.10338 15.624C1.10338 13.608 1.64738 11.784 2.73538 10.152C3.85538 8.52 5.51938 7.208 7.72738 6.216C9.93538 5.224 12.6874 4.728 15.9834 4.728C18.1914 4.728 20.3514 4.984 22.4634 5.496C24.6074 5.976 26.5114 6.696 28.1754 7.656L25.2474 14.712C23.6474 13.848 22.0634 13.208 20.4954 12.792C18.9274 12.344 17.4074 12.12 15.9354 12.12C14.6234 12.12 13.5674 12.264 12.7674 12.552C11.9674 12.808 11.3914 13.16 11.0394 13.608C10.6874 14.056 10.5114 14.568 10.5114 15.144C10.5114 15.88 10.8474 16.472 11.5194 16.92C12.2234 17.336 13.1354 17.688 14.2554 17.976C15.4074 18.232 16.6554 18.504 17.9994 18.792C19.3754 19.08 20.7354 19.448 22.0794 19.896C23.4554 20.312 24.7034 20.888 25.8234 21.624C26.9434 22.328 27.8394 23.272 28.5114 24.456C29.2154 25.608 29.5674 27.064 29.5674 28.824C29.5674 30.776 29.0074 32.584 27.8874 34.248C26.7994 35.88 25.1514 37.192 22.9434 38.184C20.7674 39.176 18.0154 39.672 14.6874 39.672ZM30.1655 39V12.984H39.2855V39H30.1655ZM34.7255 10.104C33.0615 10.104 31.7175 9.64 30.6935 8.712C29.6695 7.784 29.1575 6.632 29.1575 5.256C29.1575 3.88 29.6695 2.728 30.6935 1.8C31.7175 0.871999 33.0615 0.407999 34.7255 0.407999C36.3895 0.407999 37.7335 0.855999 38.7575 1.752C39.7815 2.616 40.2935 3.736 40.2935 5.112C40.2935 6.552 39.7815 7.752 38.7575 8.712C37.7655 9.64 36.4215 10.104 34.7255 10.104ZM75.7404 12.552C77.7564 12.552 79.5484 12.968 81.1164 13.8C82.7164 14.6 83.9644 15.848 84.8604 17.544C85.7884 19.24 86.2524 21.432 86.2524 24.12V39H77.1324V25.608C77.1324 23.752 76.7804 22.408 76.0764 21.576C75.3724 20.712 74.4124 20.28 73.1964 20.28C72.3324 20.28 71.5484 20.488 70.8444 20.904C70.1404 21.32 69.5964 21.96 69.2124 22.824C68.8284 23.656 68.6364 24.744 68.6364 26.088V39H59.5164V25.608C59.5164 23.752 59.1644 22.408 58.4604 21.576C57.7884 20.712 56.8284 20.28 55.5804 20.28C54.6844 20.28 53.8844 20.488 53.1804 20.904C52.5084 21.32 51.9644 21.96 51.5484 22.824C51.1644 23.656 50.9724 24.744 50.9724 26.088V39H41.8524V12.984H50.5404V20.232L48.8124 18.168C49.7724 16.312 51.0844 14.92 52.7484 13.992C54.4124 13.032 56.2684 12.552 58.3164 12.552C60.6524 12.552 62.7004 13.16 64.4604 14.376C66.2524 15.56 67.4524 17.416 68.0604 19.944L65.0844 19.32C66.0124 17.208 67.4044 15.56 69.2604 14.376C71.1484 13.16 73.3084 12.552 75.7404 12.552ZM105.017 39.432C102.809 39.432 100.921 38.952 99.3526 37.992C97.7846 37 96.5846 35.528 95.7526 33.576C94.9526 31.592 94.5526 29.064 94.5526 25.992C94.5526 22.888 94.9366 20.36 95.7046 18.408C96.4726 16.424 97.6246 14.952 99.1606 13.992C100.729 13.032 102.681 12.552 105.017 12.552C107.385 12.552 109.529 13.112 111.449 14.232C113.401 15.32 114.937 16.872 116.057 18.888C117.209 20.872 117.785 23.24 117.785 25.992C117.785 28.744 117.209 31.128 116.057 33.144C114.937 35.16 113.401 36.712 111.449 37.8C109.529 38.888 107.385 39.432 105.017 39.432ZM88.6486 48.312V12.984H97.3366V17.4L97.2886 25.992L97.7686 34.632V48.312H88.6486ZM103.097 32.184C104.121 32.184 105.033 31.944 105.833 31.464C106.665 30.984 107.321 30.28 107.801 29.352C108.313 28.424 108.569 27.304 108.569 25.992C108.569 24.68 108.313 23.56 107.801 22.632C107.321 21.704 106.665 21 105.833 20.52C105.033 20.04 104.121 19.8 103.097 19.8C102.073 19.8 101.145 20.04 100.313 20.52C99.5126 21 98.8566 21.704 98.3446 22.632C97.8646 23.56 97.6246 24.68 97.6246 25.992C97.6246 27.304 97.8646 28.424 98.3446 29.352C98.8566 30.28 99.5126 30.984 100.313 31.464C101.145 31.944 102.073 32.184 103.097 32.184ZM118.664 39V3.384H127.784V39H118.664ZM143.983 39.432C140.911 39.432 138.223 38.856 135.919 37.704C133.647 36.52 131.871 34.92 130.591 32.904C129.343 30.856 128.719 28.536 128.719 25.944C128.719 23.352 129.327 21.048 130.543 19.032C131.791 16.984 133.503 15.4 135.679 14.28C137.855 13.128 140.303 12.552 143.023 12.552C145.583 12.552 147.919 13.08 150.031 14.136C152.143 15.16 153.823 16.68 155.071 18.696C156.319 20.712 156.943 23.16 156.943 26.04C156.943 26.36 156.927 26.728 156.895 27.144C156.863 27.56 156.831 27.944 156.799 28.296H136.207V23.496H151.951L148.495 24.84C148.527 23.656 148.303 22.632 147.823 21.768C147.375 20.904 146.735 20.232 145.903 19.752C145.103 19.272 144.159 19.032 143.071 19.032C141.983 19.032 141.023 19.272 140.191 19.752C139.391 20.232 138.767 20.92 138.319 21.816C137.871 22.68 137.647 23.704 137.647 24.888V26.28C137.647 27.56 137.903 28.664 138.415 29.592C138.959 30.52 139.727 31.24 140.719 31.752C141.711 32.232 142.895 32.472 144.271 32.472C145.551 32.472 146.639 32.296 147.535 31.944C148.463 31.56 149.375 30.984 150.271 30.216L155.071 35.208C153.823 36.584 152.287 37.64 150.463 38.376C148.639 39.08 146.479 39.432 143.983 39.432ZM170.027 39.672C167.275 39.672 164.619 39.336 162.059 38.664C159.531 37.96 157.467 37.064 155.867 35.976L158.987 28.968C160.491 29.928 162.219 30.728 164.171 31.368C166.155 31.976 168.123 32.28 170.075 32.28C171.387 32.28 172.443 32.168 173.243 31.944C174.043 31.688 174.619 31.368 174.971 30.984C175.355 30.568 175.547 30.088 175.547 29.544C175.547 28.776 175.195 28.168 174.491 27.72C173.787 27.272 172.875 26.904 171.755 26.616C170.635 26.328 169.387 26.04 168.011 25.752C166.667 25.464 165.307 25.096 163.931 24.648C162.587 24.2 161.355 23.624 160.235 22.92C159.115 22.184 158.203 21.24 157.499 20.088C156.795 18.904 156.443 17.416 156.443 15.624C156.443 13.608 156.987 11.784 158.075 10.152C159.195 8.52 160.859 7.208 163.067 6.216C165.275 5.224 168.027 4.728 171.323 4.728C173.531 4.728 175.691 4.984 177.803 5.496C179.947 5.976 181.851 6.696 183.515 7.656L180.587 14.712C178.987 13.848 177.403 13.208 175.835 12.792C174.267 12.344 172.747 12.12 171.275 12.12C169.963 12.12 168.907 12.264 168.107 12.552C167.307 12.808 166.731 13.16 166.379 13.608C166.027 14.056 165.851 14.568 165.851 15.144C165.851 15.88 166.187 16.472 166.859 16.92C167.563 17.336 168.475 17.688 169.595 17.976C170.747 18.232 171.995 18.504 173.339 18.792C174.715 19.08 176.075 19.448 177.419 19.896C178.795 20.312 180.043 20.888 181.163 21.624C182.283 22.328 183.179 23.272 183.851 24.456C184.555 25.608 184.907 27.064 184.907 28.824C184.907 30.776 184.347 32.584 183.227 34.248C182.139 35.88 180.491 37.192 178.283 38.184C176.107 39.176 173.355 39.672 170.027 39.672ZM185.505 39V12.984H194.626V39H185.505ZM190.065 10.104C188.401 10.104 187.057 9.64 186.033 8.712C185.009 7.784 184.497 6.632 184.497 5.256C184.497 3.88 185.009 2.728 186.033 1.8C187.057 0.871999 188.401 0.407999 190.065 0.407999C191.729 0.407999 193.073 0.855999 194.097 1.752C195.122 2.616 195.634 3.736 195.634 5.112C195.634 6.552 195.122 7.752 194.097 8.712C193.105 9.64 191.761 10.104 190.065 10.104ZM231.08 12.552C233.096 12.552 234.888 12.968 236.456 13.8C238.056 14.6 239.304 15.848 240.2 17.544C241.128 19.24 241.592 21.432 241.592 24.12V39H232.472V25.608C232.472 23.752 232.12 22.408 231.416 21.576C230.712 20.712 229.752 20.28 228.536 20.28C227.672 20.28 226.888 20.488 226.184 20.904C225.48 21.32 224.936 21.96 224.552 22.824C224.168 23.656 223.976 24.744 223.976 26.088V39H214.856V25.608C214.856 23.752 214.504 22.408 213.8 21.576C213.128 20.712 212.168 20.28 210.92 20.28C210.024 20.28 209.224 20.488 208.52 20.904C207.848 21.32 207.304 21.96 206.888 22.824C206.504 23.656 206.312 24.744 206.312 26.088V39H197.192V12.984H205.88V20.232L204.152 18.168C205.112 16.312 206.424 14.92 208.088 13.992C209.752 13.032 211.608 12.552 213.656 12.552C215.992 12.552 218.04 13.16 219.8 14.376C221.592 15.56 222.792 17.416 223.4 19.944L220.424 19.32C221.352 17.208 222.744 15.56 224.6 14.376C226.488 13.16 228.648 12.552 231.08 12.552ZM260.357 39.432C258.149 39.432 256.261 38.952 254.693 37.992C253.125 37 251.925 35.528 251.093 33.576C250.293 31.592 249.893 29.064 249.893 25.992C249.893 22.888 250.277 20.36 251.045 18.408C251.813 16.424 252.965 14.952 254.501 13.992C256.069 13.032 258.021 12.552 260.357 12.552C262.725 12.552 264.869 13.112 266.789 14.232C268.741 15.32 270.277 16.872 271.397 18.888C272.549 20.872 273.125 23.24 273.125 25.992C273.125 28.744 272.549 31.128 271.397 33.144C270.277 35.16 268.741 36.712 266.789 37.8C264.869 38.888 262.725 39.432 260.357 39.432ZM243.989 48.312V12.984H252.677V17.4L252.629 25.992L253.109 34.632V48.312H243.989ZM258.437 32.184C259.461 32.184 260.373 31.944 261.173 31.464C262.005 30.984 262.661 30.28 263.141 29.352C263.653 28.424 263.909 27.304 263.909 25.992C263.909 24.68 263.653 23.56 263.141 22.632C262.661 21.704 262.005 21 261.173 20.52C260.373 20.04 259.461 19.8 258.437 19.8C257.413 19.8 256.485 20.04 255.653 20.52C254.853 21 254.197 21.704 253.685 22.632C253.205 23.56 252.965 24.68 252.965 25.992C252.965 27.304 253.205 28.424 253.685 29.352C254.197 30.28 254.853 30.984 255.653 31.464C256.485 31.944 257.413 32.184 258.437 32.184ZM274.004 39V3.384H283.124V39H274.004ZM299.323 39.432C296.251 39.432 293.563 38.856 291.259 37.704C288.987 36.52 287.211 34.92 285.931 32.904C284.683 30.856 284.059 28.536 284.059 25.944C284.059 23.352 284.667 21.048 285.883 19.032C287.131 16.984 288.843 15.4 291.019 14.28C293.195 13.128 295.643 12.552 298.363 12.552C300.923 12.552 303.259 13.08 305.371 14.136C307.483 15.16 309.163 16.68 310.411 18.696C311.659 20.712 312.283 23.16 312.283 26.04C312.283 26.36 312.267 26.728 312.235 27.144C312.203 27.56 312.171 27.944 312.139 28.296H291.547V23.496H307.291L303.835 24.84C303.867 23.656 303.643 22.632 303.163 21.768C302.715 20.904 302.075 20.232 301.243 19.752C300.443 19.272 299.499 19.032 298.411 19.032C297.323 19.032 296.363 19.272 295.531 19.752C294.731 20.232 294.107 20.92 293.659 21.816C293.211 22.68 292.987 23.704 292.987 24.888V26.28C292.987 27.56 293.243 28.664 293.755 29.592C294.299 30.52 295.067 31.24 296.059 31.752C297.051 32.232 298.235 32.472 299.611 32.472C300.891 32.472 301.979 32.296 302.875 31.944C303.803 31.56 304.715 30.984 305.611 30.216L310.411 35.208C309.163 36.584 307.627 37.64 305.803 38.376C303.979 39.08 301.819 39.432 299.323 39.432ZM313.127 39V12.984H321.815V20.568L320.519 18.408C321.287 16.456 322.535 15 324.263 14.04C325.991 13.048 328.087 12.552 330.551 12.552V20.76C330.135 20.696 329.767 20.664 329.447 20.664C329.159 20.632 328.839 20.616 328.487 20.616C326.631 20.616 325.127 21.128 323.975 22.152C322.823 23.144 322.247 24.776 322.247 27.048V39H313.127Z" fill="#00A40B"/>
</svg>
